<svg xmlns="http://www.w3.org/2000/svg" fill="none" viewBox="0 0 318 135"><path fill="#000" fill-opacity=".19" d="M71.512 52.409A10 10 0 0 1 79.032 49H134c5.523 0 10 4.477 10 10v65c0 5.523-4.477 10-10 10H22.062c-8.595 0-13.186-10.127-7.52-16.591l56.97-65Z"/><path fill="#171B61" stroke="#ECD37E" d="M234.352 52.268H96.151C75.633 52.268 59 68.901 59 89.418v7.431C59 117.367 75.633 134 96.15 134h138.202c20.518 0 37.151-16.633 37.151-37.15v-7.431c0-20.518-16.633-37.15-37.151-37.15Z"/><path fill="#363975" stroke="#ECD37E" d="M67.173 93.134c0-17.645 14.305-31.95 31.95-31.95H231.38c17.645 0 31.95 14.305 31.95 31.95s-14.305 31.95-31.95 31.95H99.123c-17.645 0-31.95-14.305-31.95-31.95Z"/><path fill="url(#a)" stroke="#ECD37E" d="M231.38 61.184H99.123c-11.145 0-25.263 10.59-25.263 28.235s14.305 31.95 31.95 31.95h132.257c9.659 0 25.263-10.59 25.263-28.235s-14.305-31.95-31.95-31.95Z"/><path fill="url(#b)" d="M234.352 52.268H96.151c-10.671 0-20.292 4.5-27.068 11.705l-1.401 1.576a38.12 38.12 0 0 1 1.4-1.576l41.895-47.145c1.013-1.14 1.967-2.332 3.001-3.453C117.459 9.599 126.978 1 141.475 1h138.201c20.518 0 37.151 16.633 37.151 37.15v7.431c0 12.02-5.402 19.24-6.496 20.578-.108.133-.22.259-.332.387l-.059.066-44.709 50.901a36.981 36.981 0 0 0 6.272-20.664v-7.43c0-20.518-16.633-37.15-37.151-37.15Z"/><path stroke="#ECD37E" d="M234.352 134c20.518 0 37.151-16.633 37.151-37.15v-7.431c0-20.518-16.633-37.15-37.151-37.15H96.151C75.633 52.268 59 68.9 59 89.418m8.682-23.87 43.295-48.721c1.013-1.14 1.967-2.332 3.001-3.453C117.459 9.599 126.978 1 141.475 1h138.201c20.518 0 37.151 16.633 37.151 37.15v7.431c0 12.02-5.402 19.24-6.496 20.578-.127.155-.258.302-.391.453l-48.096 54.757m-144.889-18.947v18.575"/><path stroke="#ECD37E" d="M107.053 102.55h19.805v18.318h-19.805zm109.467-.128v18.575m-9.903-18.447h19.805v18.318h-19.805zm-71.329 7.674a5.072 5.072 0 0 1 5.072-5.073h55.727a5.072 5.072 0 0 1 0 10.145H140.36a5.072 5.072 0 0 1-5.072-5.072Z"/><rect width="65.871" height="10.145" x="135.288" y="86.204" stroke="#ECD37E" rx="5.073"/><rect width="65.871" height="10.145" x="135.288" y="66.885" stroke="#ECD37E" rx="5.073"/><circle cx="227.293" cy="80.874" r="13.989" fill="#ECD37E" stroke="#ECD37E"/><circle cx="112.869" cy="80.874" r="13.989" fill="#ECD37E" stroke="#ECD37E"/><defs><linearGradient id="a" x1="222.464" x2="222.464" y1="61.184" y2="75.302" gradientUnits="userSpaceOnUse"><stop stop-color="#000110"/><stop offset="1" stop-color="#171B61"/></linearGradient><linearGradient id="b" x1="286.363" x2="251.813" y1="72.701" y2="32.207" gradientUnits="userSpaceOnUse"><stop/><stop offset="1" stop-color="#5B5FA5"/></linearGradient></defs></svg>