<svg xmlns="http://www.w3.org/2000/svg" fill="none" viewBox="0 0 175 172"><path fill="#000" fill-opacity=".55" d="M24.05 154.57a4 4 0 0 1 2.058-.57H113a4 4 0 0 1 4 4v7a4 4 0 0 1-4 4H14.441c-4.057 0-5.536-5.343-2.058-7.43l11.667-7Z"/><path fill="url(#a)" stroke="#ECD37E" stroke-linecap="round" d="M91 28 80 165c0 8 40 8 40 0L108.5 28c0 4-17.5 4-17.5 0Z"/><path fill="#000" fill-opacity=".47" d="M94.5 95s-8.5 5-8.5 0l1.5-47H110l4 59c-12 6-19.5-12-19.5-12Z"/><path fill="url(#b)" stroke="#ECD37E" d="M167.5 46c0 21.24-18.109 38.5-40.5 38.5S86.5 67.24 86.5 46 104.609 7.5 127 7.5s40.5 17.26 40.5 38.5Z"/><path fill="url(#c)" stroke="#ECD37E" d="M99.5 23c0 12.407-10.501 22.5-23.5 22.5S52.5 35.407 52.5 23 63.001.5 76 .5 99.5 10.593 99.5 23Z"/><path fill="url(#d)" stroke="#ECD37E" d="M174.5 77c0 12.407-10.501 22.5-23.5 22.5S127.5 89.407 127.5 77s10.501-22.5 23.5-22.5 23.5 10.093 23.5 22.5Z"/><path fill="url(#e)" stroke="#ECD37E" d="M143.5 85c0 12.407-10.501 22.5-23.5 22.5S96.5 97.407 96.5 85s10.501-22.5 23.5-22.5 23.5 10.093 23.5 22.5Z"/><path fill="url(#f)" stroke="#ECD37E" d="M96.5 63.5c0 17.652-14.977 32-33.5 32s-33.5-14.348-33.5-32 14.977-32 33.5-32 33.5 14.348 33.5 32Z"/><path fill="url(#g)" stroke="#ECD37E" d="M150.5 47.5c0 17.652-14.977 32-33.5 32s-33.5-14.348-33.5-32 14.977-32 33.5-32 33.5 14.348 33.5 32Z"/><defs><radialGradient id="b" cx="0" cy="0" r="1" gradientTransform="rotate(133.403 65.618 47.295) scale(58.9105 61.8645)" gradientUnits="userSpaceOnUse"><stop offset=".001" stop-color="#fff"/><stop offset=".178" stop-color="#5D61A0"/><stop offset="1" stop-color="#0B0F48"/></radialGradient><radialGradient id="c" cx="0" cy="0" r="1" gradientTransform="rotate(133.19 40.082 26.144) scale(34.6206 36.3405)" gradientUnits="userSpaceOnUse"><stop offset=".001" stop-color="#fff"/><stop offset=".178" stop-color="#5D61A0"/><stop offset="1" stop-color="#0B0F48"/></radialGradient><radialGradient id="d" cx="0" cy="0" r="1" gradientTransform="rotate(133.19 65.895 69.375) scale(34.6206 36.3405)" gradientUnits="userSpaceOnUse"><stop offset=".001" stop-color="#fff"/><stop offset=".178" stop-color="#5D61A0"/><stop offset="1" stop-color="#0B0F48"/></radialGradient><radialGradient id="e" cx="0" cy="0" r="1" gradientTransform="rotate(133.19 48.664 66.666) scale(34.6206 36.3405)" gradientUnits="userSpaceOnUse"><stop offset=".001" stop-color="#fff"/><stop offset=".178" stop-color="#5D61A0"/><stop offset="1" stop-color="#0B0F48"/></radialGradient><radialGradient id="f" cx="0" cy="0" r="1" gradientTransform="matrix(-33.5678 35.66741 -37.4452 -35.24095 77.983 51.932)" gradientUnits="userSpaceOnUse"><stop offset=".001" stop-color="#fff"/><stop offset=".178" stop-color="#5D61A0"/><stop offset="1" stop-color="#0B0F48"/></radialGradient><radialGradient id="g" cx="0" cy="0" r="1" gradientTransform="matrix(-33.5678 35.66741 -37.4452 -35.24095 131.983 35.932)" gradientUnits="userSpaceOnUse"><stop offset=".001" stop-color="#fff"/><stop offset=".178" stop-color="#5D61A0"/><stop offset="1" stop-color="#0B0F48"/></radialGradient><linearGradient id="a" x1="84.615" x2="120.004" y1="109.441" y2="109.286" gradientUnits="userSpaceOnUse"><stop stop-color="#11155F"/><stop offset=".735" stop-color="#5D60A0"/><stop offset="1" stop-color="#494E91"/></linearGradient></defs></svg>