<svg xmlns="http://www.w3.org/2000/svg" fill="none" viewBox="0 0 1440 696"><path fill="url(#a)" d="M0 58.593c268.56-82.563 1181.96-73.556 1440 0V598H0V58.593Z"/><path fill="#0A0E50" d="M0 110h1440v586H0V110Z"/><rect width="269" height="399" x="56.5" y="154.5" fill="#2F337D" stroke="#ECD37E" rx="30.5"/><path fill="#1A6707" d="M57 434h268v89c0 16.569-13.431 30-30 30H87c-16.569 0-30-13.431-30-30v-89Z"/><path fill="#2E9115" d="M178.816 304.25H325v133.202H57L178.816 304.25Z"/><path fill="#5B5FA5" d="M177.5 155H294c16.569 0 30 13.431 30 30v121H177.5V155Z"/><path fill="url(#b)" stroke="#ECD37E" d="M178.5 276.5c0 25.385-21.47 46-48 46s-48-20.615-48-46 21.47-46 48-46 48 20.615 48 46Z"/><path fill="url(#c)" stroke="#ECD37E" d="M162.5 154.5h41V395c0 1.052-.546 2.017-1.621 2.894-1.08.882-2.654 1.639-4.593 2.254-3.872 1.23-9.067 1.852-14.286 1.852-5.219 0-10.414-.622-14.286-1.852-1.939-.615-3.513-1.372-4.593-2.254-1.075-.877-1.621-1.842-1.621-2.894V154.5Z"/><path fill="url(#d)" stroke="#ECD37E" d="M258.5 216.5c0 17.652-14.977 32-33.5 32s-33.5-14.348-33.5-32 14.977-32 33.5-32 33.5 14.348 33.5 32Z"/><path fill="url(#e)" stroke="#ECD37E" d="M295.5 347c0 30.631-25.947 55.5-58 55.5s-58-24.869-58-55.5 25.947-55.5 58-55.5 58 24.869 58 55.5Z"/><defs><radialGradient id="b" cx="0" cy="0" r="1" gradientTransform="rotate(133.177 19.66 162.853) scale(69.9791 73.4534)" gradientUnits="userSpaceOnUse"><stop offset=".001" stop-color="#fff"/><stop offset=".178" stop-color="#95EEEE"/><stop offset=".484" stop-color="#30B977"/></radialGradient><radialGradient id="d" cx="0" cy="0" r="1" gradientTransform="matrix(-33.5678 35.66741 -37.4452 -35.24095 239.983 204.932)" gradientUnits="userSpaceOnUse"><stop offset=".001" stop-color="#fff"/><stop offset=".178" stop-color="#95EEEE"/><stop offset=".484" stop-color="#30B977"/></radialGradient><radialGradient id="e" cx="0" cy="0" r="1" gradientTransform="matrix(-57.75666 61.4573 -64.51487 -60.63013 263.28 327.068)" gradientUnits="userSpaceOnUse"><stop offset=".001" stop-color="#fff"/><stop offset=".178" stop-color="#95EEEE"/><stop offset=".484" stop-color="#30B977"/></radialGradient><linearGradient id="a" x1="608" x2="728.314" y1="598" y2="54.831" gradientUnits="userSpaceOnUse"><stop stop-color="#13175D"/><stop offset="1" stop-color="#8A8DC8"/></linearGradient><linearGradient id="c" x1="166.846" x2="204.004" y1="295.524" y2="295.426" gradientUnits="userSpaceOnUse"><stop stop-color="#11155F"/><stop offset=".735" stop-color="#5D60A0"/><stop offset="1" stop-color="#494E91"/></linearGradient></defs></svg>