<svg xmlns="http://www.w3.org/2000/svg" fill="none" viewBox="0 0 1440 770"><path fill="url(#a)" d="M0 132.593c268.56-82.562 1181.96-73.556 1440 0V672H0V132.593Z"/><path fill="#000" fill-opacity=".55" d="M106.05 154.57a4 4 0 0 1 2.058-.57H195a4 4 0 0 1 4 4v7a4 4 0 0 1-4 4H96.441c-4.057 0-5.537-5.343-2.058-7.43l11.667-7Z"/><path fill="url(#b)" stroke="#ECD37E" stroke-linecap="round" d="m173 28-11 137c0 8 40 8 40 0L190.5 28c0 4-17.5 4-17.5 0Z"/><path fill="#000" fill-opacity=".47" d="M176.5 95s-8.5 5-8.5 0l1.5-47H192l4 59c-12 6-19.5-12-19.5-12Z"/><path fill="url(#c)" stroke="#ECD37E" d="M249.5 46c0 21.24-18.109 38.5-40.5 38.5S168.5 67.24 168.5 46 186.609 7.5 209 7.5s40.5 17.26 40.5 38.5Z"/><path fill="url(#d)" stroke="#ECD37E" d="M181.5 23c0 12.407-10.501 22.5-23.5 22.5S134.5 35.407 134.5 23 145.001.5 158 .5s23.5 10.093 23.5 22.5Z"/><path fill="url(#e)" stroke="#ECD37E" d="M256.5 77c0 12.407-10.501 22.5-23.5 22.5S209.5 89.407 209.5 77s10.501-22.5 23.5-22.5 23.5 10.093 23.5 22.5Z"/><path fill="url(#f)" stroke="#ECD37E" d="M225.5 85c0 12.407-10.501 22.5-23.5 22.5S178.5 97.407 178.5 85s10.501-22.5 23.5-22.5 23.5 10.093 23.5 22.5Z"/><path fill="url(#g)" stroke="#ECD37E" d="M178.5 63.5c0 17.652-14.977 32-33.5 32s-33.5-14.348-33.5-32 14.977-32 33.5-32 33.5 14.348 33.5 32Z"/><path fill="url(#h)" stroke="#ECD37E" d="M232.5 47.5c0 17.652-14.977 32-33.5 32s-33.5-14.348-33.5-32 14.977-32 33.5-32 33.5 14.348 33.5 32Z"/><path fill="#0A0E50" d="M0 184h1440v586H0V184Z"/><rect width="269" height="399" x="56.5" y="228.5" fill="#2F337D" stroke="#ECD37E" rx="30.5"/><path fill="#1A6707" d="M57 508h268v89c0 16.569-13.431 30-30 30H87c-16.569 0-30-13.431-30-30v-89Z"/><path fill="#2E9115" d="M178.816 378.25H325v133.202H57L178.816 378.25Z"/><path fill="#5B5FA5" d="M177.5 229H294c16.569 0 30 13.431 30 30v121H177.5V229Z"/><path fill="url(#i)" stroke="#ECD37E" d="M178.5 350.5c0 25.385-21.47 46-48 46s-48-20.615-48-46 21.47-46 48-46 48 20.615 48 46Z"/><path fill="url(#j)" stroke="#ECD37E" d="M162.5 228.5h41V469c0 1.052-.546 2.017-1.621 2.894-1.08.882-2.654 1.639-4.593 2.254-3.872 1.23-9.067 1.852-14.286 1.852-5.219 0-10.414-.622-14.286-1.852-1.939-.615-3.513-1.372-4.593-2.254-1.075-.877-1.621-1.842-1.621-2.894V228.5Z"/><path fill="url(#k)" stroke="#ECD37E" d="M258.5 290.5c0 17.652-14.977 32-33.5 32s-33.5-14.348-33.5-32 14.977-32 33.5-32 33.5 14.348 33.5 32Z"/><path fill="url(#l)" stroke="#ECD37E" d="M295.5 421c0 30.631-25.947 55.5-58 55.5s-58-24.869-58-55.5 25.947-55.5 58-55.5 58 24.869 58 55.5Z"/><defs><radialGradient id="c" cx="0" cy="0" r="1" gradientTransform="rotate(133.403 106.618 64.951) scale(58.9105 61.8645)" gradientUnits="userSpaceOnUse"><stop offset=".001" stop-color="#fff"/><stop offset=".178" stop-color="#5D61A0"/><stop offset="1" stop-color="#0B0F48"/></radialGradient><radialGradient id="d" cx="0" cy="0" r="1" gradientTransform="rotate(133.19 81.082 43.89) scale(34.6206 36.3405)" gradientUnits="userSpaceOnUse"><stop offset=".001" stop-color="#fff"/><stop offset=".178" stop-color="#5D61A0"/><stop offset="1" stop-color="#0B0F48"/></radialGradient><radialGradient id="e" cx="0" cy="0" r="1" gradientTransform="rotate(133.19 106.895 87.122) scale(34.6206 36.3405)" gradientUnits="userSpaceOnUse"><stop offset=".001" stop-color="#fff"/><stop offset=".178" stop-color="#5D61A0"/><stop offset="1" stop-color="#0B0F48"/></radialGradient><radialGradient id="f" cx="0" cy="0" r="1" gradientTransform="rotate(133.19 89.664 84.413) scale(34.6206 36.3405)" gradientUnits="userSpaceOnUse"><stop offset=".001" stop-color="#fff"/><stop offset=".178" stop-color="#5D61A0"/><stop offset="1" stop-color="#0B0F48"/></radialGradient><radialGradient id="g" cx="0" cy="0" r="1" gradientTransform="matrix(-33.5678 35.66741 -37.4452 -35.24095 159.983 51.932)" gradientUnits="userSpaceOnUse"><stop offset=".001" stop-color="#fff"/><stop offset=".178" stop-color="#5D61A0"/><stop offset="1" stop-color="#0B0F48"/></radialGradient><radialGradient id="h" cx="0" cy="0" r="1" gradientTransform="matrix(-33.5678 35.66741 -37.4452 -35.24095 213.983 35.932)" gradientUnits="userSpaceOnUse"><stop offset=".001" stop-color="#fff"/><stop offset=".178" stop-color="#5D61A0"/><stop offset="1" stop-color="#0B0F48"/></radialGradient><radialGradient id="i" cx="0" cy="0" r="1" gradientTransform="rotate(133.177 3.64 199.853) scale(69.9791 73.4534)" gradientUnits="userSpaceOnUse"><stop offset=".001" stop-color="#fff"/><stop offset=".178" stop-color="#95EEEE"/><stop offset=".484" stop-color="#30B977"/></radialGradient><radialGradient id="k" cx="0" cy="0" r="1" gradientTransform="matrix(-33.5678 35.66741 -37.4452 -35.24095 239.983 278.932)" gradientUnits="userSpaceOnUse"><stop offset=".001" stop-color="#fff"/><stop offset=".178" stop-color="#95EEEE"/><stop offset=".484" stop-color="#30B977"/></radialGradient><radialGradient id="l" cx="0" cy="0" r="1" gradientTransform="matrix(-57.75666 61.4573 -64.51487 -60.63013 263.28 401.068)" gradientUnits="userSpaceOnUse"><stop offset=".001" stop-color="#fff"/><stop offset=".178" stop-color="#95EEEE"/><stop offset=".484" stop-color="#30B977"/></radialGradient><linearGradient id="a" x1="608" x2="728.314" y1="672" y2="128.831" gradientUnits="userSpaceOnUse"><stop stop-color="#13175D"/><stop offset="1" stop-color="#8A8DC8"/></linearGradient><linearGradient id="b" x1="166.615" x2="202.004" y1="109.441" y2="109.286" gradientUnits="userSpaceOnUse"><stop stop-color="#11155F"/><stop offset=".735" stop-color="#5D60A0"/><stop offset="1" stop-color="#494E91"/></linearGradient><linearGradient id="j" x1="166.846" x2="204.004" y1="369.524" y2="369.426" gradientUnits="userSpaceOnUse"><stop stop-color="#11155F"/><stop offset=".735" stop-color="#5D60A0"/><stop offset="1" stop-color="#494E91"/></linearGradient></defs></svg>