<svg xmlns="http://www.w3.org/2000/svg" fill="none" viewBox="0 0 811 605"><path fill="#0A0E50" stroke="#ECD37E" d="M2 349.828h606.471V603.5H2V349.828Z"/><path fill="#5B5FA5" stroke="#ECD37E" d="M199.426 123H809L611.574 349.828H2L199.426 123Z"/><path fill="#2F337D" stroke="#ECD37E" d="M609.471 349.38 809.5 124l.5 253.62-200.529 225.105V349.38Z"/><ellipse cx="628" cy="157.863" fill="#000" fill-opacity=".34" rx="117" ry="18.137"/><path fill="#5B5FA5" stroke="#ECD37E" d="M714.263 13.895c0 7.121-21.452 12.895-47.914 12.895-26.463 0-47.915-5.774-47.915-12.895C618.434 6.773 639.886 1 666.349 1c26.462 0 47.914 5.773 47.914 12.895Z"/><path fill="url(#a)" d="m714.424 13.745-.003.135c-.048 2.673-.708 44.424 5.07 71.155 5.97 27.624 25.509 70.184 25.509 70.184 0 11.394-35.141 20.631-78.491 20.631-43.349 0-78.49-9.237-78.49-20.631 0 0 19.385-43.113 25.355-70.737 5.793-26.804 5.259-68.188 5.222-70.624l-.001-.113.001.113c.225 7.07 21.591 12.782 47.913 12.782 26.295 0 47.643-5.7 47.912-12.76l.003-.135Z"/><path stroke="#ECD37E" d="M714.424 13.745c0 7.122-21.452 12.895-47.915 12.895-26.462 0-47.914-5.773-47.914-12.895 0 0 .75 43.113-5.221 70.737-5.97 27.624-25.355 70.737-25.355 70.737 0 11.394 35.141 20.631 78.49 20.631 43.35 0 78.491-9.237 78.491-20.631 0 0-19.539-42.56-25.509-70.184-5.971-27.625-5.067-71.29-5.067-71.29Z"/><path fill="url(#b)" d="M666.264 83.843c28.042 0 50.774-6.145 50.774-13.725l-1.472-14.706c0 7.31-22.073 13.235-49.302 13.235s-49.302-5.926-49.302-13.235l-1.472 14.706c0 7.58 22.733 13.725 50.774 13.725Z"/><path fill="url(#c)" d="M666.264 52.96c26.687 0 48.321-5.596 48.321-12.5l-.245-12.5c0 6.904-21.279 12.256-47.831 12.256-26.551 0-48.075-5.597-48.075-12.5l-.491 12.745c0 6.903 21.634 12.5 48.321 12.5Z"/><path fill="url(#d)" d="M666.509 101.245c29.532 0 53.472-6.474 53.472-14.46l4.415 16.421c0 8.663-25.917 15.686-57.887 15.686s-57.886-7.023-57.886-15.686l4.415-16.422c0 7.987 23.94 14.461 53.471 14.461Z"/><path fill="url(#e)" d="M666.264 135.804c34.815 0 63.528-8.172 63.528-17.647l8.095 20.098c0 10.558-32.092 19.608-71.378 19.608-39.285 0-71.377-9.05-71.377-19.608l7.849-20.343c0 9.475 28.468 17.892 63.283 17.892Z"/><ellipse cx="440" cy="157.863" fill="#000" fill-opacity=".34" rx="117" ry="18.137"/><path fill="#5B5FA5" stroke="#ECD37E" d="M526.263 13.895c0 7.121-21.452 12.895-47.914 12.895-26.463 0-47.915-5.774-47.915-12.895C430.434 6.773 451.886 1 478.349 1c26.462 0 47.914 5.773 47.914 12.895Z"/><path fill="url(#f)" d="m526.424 13.745-.003.135c-.048 2.673-.708 44.424 5.07 71.155 5.97 27.624 25.509 70.184 25.509 70.184 0 11.394-35.141 20.631-78.491 20.631-43.349 0-78.49-9.237-78.49-20.631 0 0 19.385-43.113 25.355-70.737 5.793-26.804 5.259-68.188 5.222-70.624l-.001-.113.001.113c.225 7.07 21.591 12.782 47.913 12.782 26.295 0 47.643-5.7 47.912-12.76l.003-.135Z"/><path stroke="#ECD37E" d="M526.424 13.745c0 7.122-21.452 12.895-47.915 12.895-26.462 0-47.914-5.773-47.914-12.895 0 0 .75 43.113-5.221 70.737-5.97 27.624-25.355 70.737-25.355 70.737 0 11.394 35.141 20.631 78.49 20.631 43.35 0 78.491-9.237 78.491-20.631 0 0-19.539-42.56-25.509-70.184-5.971-27.625-5.067-71.29-5.067-71.29Z"/><path fill="url(#g)" d="M478.264 83.843c28.042 0 50.774-6.145 50.774-13.725l-1.472-14.706c0 7.31-22.073 13.235-49.302 13.235s-49.302-5.926-49.302-13.235l-1.472 14.706c0 7.58 22.733 13.725 50.774 13.725Z"/><path fill="url(#h)" d="M478.264 52.96c26.687 0 48.321-5.596 48.321-12.5l-.245-12.5c0 6.904-21.279 12.256-47.831 12.256-26.551 0-48.075-5.597-48.075-12.5l-.491 12.745c0 6.903 21.634 12.5 48.321 12.5Z"/><path fill="url(#i)" d="M478.509 101.245c29.532 0 53.472-6.474 53.472-14.46l4.415 16.421c0 8.663-25.917 15.686-57.887 15.686s-57.886-7.023-57.886-15.686l4.415-16.422c0 7.987 23.94 14.461 53.471 14.461Z"/><path fill="url(#j)" d="M478.264 135.804c34.815 0 63.528-8.172 63.528-17.647l8.095 20.098c0 10.558-32.092 19.608-71.378 19.608-39.285 0-71.377-9.05-71.377-19.608l7.849-20.343c0 9.475 28.468 17.892 63.283 17.892Z"/><path fill="#000" fill-opacity=".5" d="M535.716 257.929h64.534l17.314-18.57h-57.609l-37.461-30.529-85.311 2.833L395 257.929h44.072L426.795 268h47.535l31.48-32.732s-4.408 17.31 34.942 17.31l-5.036 5.351Z"/><path fill="#0A0E50" stroke="#ECD37E" d="M447.572 200h30.662v35.268h-30.662z"/><path fill="#5B5FA5" stroke="#ECD37E" d="M463.868 181.281h30.918L478.49 200h-30.918l16.296-18.719Z"/><path fill="#2F337D" stroke="#ECD37E" d="M478.734 233.95v-33.797l15.552-17.553v33.796l-15.552 17.554Z"/><path fill="#0A0E50" stroke="#ECD37E" d="M447.572 157.679h30.662v35.268h-30.662z"/><path fill="#5B5FA5" stroke="#ECD37E" d="M463.868 138.96h30.918l-16.296 18.719h-30.918l16.296-18.719Z"/><path fill="#2F337D" stroke="#ECD37E" d="M478.734 191.628v-33.797l15.552-17.553v33.797l-15.552 17.553Z"/><path fill="#0A0E50" stroke="#ECD37E" d="M484.995 200h30.662v35.268h-30.662z"/><path fill="#5B5FA5" stroke="#ECD37E" d="M501.291 181.281h30.918L515.913 200h-30.918l16.296-18.719Z"/><path fill="#2F337D" stroke="#ECD37E" d="M516.157 233.95v-33.797l15.552-17.553v33.796l-15.552 17.554Z"/><path fill="#0A0E50" stroke="#ECD37E" d="M426.795 223.29h30.662v35.268h-30.662z"/><path fill="#5B5FA5" stroke="#ECD37E" d="M443.091 204.571h30.919l-16.297 18.719h-30.918l16.296-18.719Z"/><path fill="#2F337D" stroke="#ECD37E" d="M457.957 257.24v-33.797l15.553-17.553v33.796l-15.553 17.554Z"/><path fill="#0A0E50" stroke="#ECD37E" d="M496.68 149.496h30.662v35.268H496.68z"/><path fill="#5B5FA5" stroke="#ECD37E" d="M512.977 130.777h30.918l-16.296 18.719H496.68l16.297-18.719Z"/><path fill="#2F337D" stroke="#ECD37E" d="M527.843 183.445v-33.796l15.552-17.554v33.797l-15.552 17.553Z"/><path fill="#0A0E50" stroke="#ECD37E" d="M415.462 180.969h30.662v35.268h-30.662z"/><path fill="#5B5FA5" stroke="#ECD37E" d="M431.758 162.25h30.919l-16.297 18.719h-30.918l16.296-18.719Z"/><path fill="#2F337D" stroke="#ECD37E" d="M446.624 214.918v-33.796l15.553-17.554v33.797l-15.553 17.553Z"/><path fill="#0A0E50" stroke="#ECD37E" d="M457.645 232.585h30.662v35.268h-30.662z"/><path fill="#5B5FA5" stroke="#ECD37E" d="M473.941 213.866h30.919l-16.296 18.719h-30.919l16.296-18.719Z"/><path fill="#2F337D" stroke="#ECD37E" d="M488.808 266.534v-33.796l15.552-17.554v33.797l-15.552 17.553Z"/><path fill="#0A0E50" stroke="#ECD37E" d="M464.218 180.969h30.662v35.268h-30.662z"/><path fill="#5B5FA5" stroke="#ECD37E" d="M480.514 162.25h30.919l-16.296 18.719h-30.919l16.296-18.719Z"/><path fill="#2F337D" stroke="#ECD37E" d="M495.38 214.918v-33.796l15.553-17.554v33.797l-15.553 17.553Z"/><path fill="url(#k)" stroke="url(#l)" d="M573.621 236.055c0 3.436-3.05 6.193-8.042 8.12-4.943 1.909-11.568 2.908-18.219 2.947-6.651.039-13.274-.882-18.214-2.77-4.981-1.904-8.041-4.698-8.041-8.297 0-9.236 3.295-16.081 8.201-20.611 4.914-4.537 11.477-6.781 18.054-6.743 6.578.039 13.143 2.36 18.059 6.919 4.909 4.551 8.202 11.359 8.202 20.435Z"/><path fill="#0A0E50" stroke="#ECD37E" d="M577.899 145.719h30.662v35.268h-30.662z"/><path fill="#5B5FA5" stroke="#ECD37E" d="M594.195 127h30.919l-16.297 18.719h-30.918L594.195 127Z"/><path fill="#2F337D" stroke="#ECD37E" d="M609.061 179.668v-33.796l15.553-17.554v33.797l-15.553 17.553Z"/><path fill="#0A0E50" stroke="#ECD37E" d="M630.785 199.853h30.662v35.268h-30.662z"/><path fill="#5B5FA5" stroke="#ECD37E" d="M647.082 181.134H678l-16.296 18.719h-30.919l16.297-18.719Z"/><path fill="#2F337D" stroke="#ECD37E" d="M661.948 233.802v-33.796l15.552-17.554v33.797l-15.552 17.553Z"/><path fill="#0A0E50" stroke="#ECD37E" d="M557.122 223.29h30.662v35.268h-30.662z"/><path fill="#5B5FA5" stroke="#ECD37E" d="M573.418 204.571h30.919l-16.296 18.719h-30.919l16.296-18.719Z"/><path fill="#2F337D" stroke="#ECD37E" d="M588.284 257.24v-33.797l15.553-17.553v33.796l-15.553 17.554Z"/><path fill="#0A0E50" stroke="#ECD37E" d="M615.322 157.679h30.662v35.268h-30.662z"/><path fill="#5B5FA5" stroke="#ECD37E" d="M631.618 138.96h30.919l-16.296 18.719h-30.919l16.296-18.719Z"/><path fill="#2F337D" stroke="#ECD37E" d="M646.484 191.628v-33.797l15.553-17.553v33.797l-15.553 17.553Z"/><path fill="#0A0E50" stroke="#ECD37E" d="M548.937 180.969h30.662v35.268h-30.662z"/><path fill="#5B5FA5" stroke="#ECD37E" d="M565.233 162.25h30.919l-16.296 18.719h-30.919l16.296-18.719Z"/><path fill="#2F337D" stroke="#ECD37E" d="M580.1 214.918v-33.796l15.552-17.554v33.797L580.1 214.918Z"/><path fill="#0A0E50" stroke="#ECD37E" d="M599.935 223.143h30.662v35.268h-30.662z"/><path fill="#5B5FA5" stroke="#ECD37E" d="M616.231 204.424h30.919l-16.297 18.719h-30.918l16.296-18.719Z"/><path fill="#2F337D" stroke="#ECD37E" d="M631.097 257.093v-33.797l15.552-17.554v33.797l-15.552 17.554Z"/><path fill="#0A0E50" stroke="#ECD37E" d="M585.454 190.411h30.662v35.268h-30.662z"/><path fill="#5B5FA5" stroke="#ECD37E" d="M601.75 171.692h30.919l-16.296 18.719h-30.919l16.296-18.719Z"/><path fill="#2F337D" stroke="#ECD37E" d="M616.616 224.36v-33.796l15.553-17.554v33.797l-15.553 17.553Z"/><path fill="#000" fill-opacity=".19" d="M468.634 286.1a10 10 0 0 1 7.507-3.393h24.307c5.523 0 10 4.477 10 10V320c0 5.523-4.477 10-10 10h-48.326c-8.606 0-13.192-10.147-7.507-16.606l24.019-27.294Z"/><path fill="#171B61" stroke="#ECD37E" d="M560.924 284.525h-77.208c-11.463 0-20.755 9.255-20.755 20.671v4.134c0 11.416 9.292 20.67 20.755 20.67h77.208c11.463 0 20.755-9.254 20.755-20.67v-4.134c0-11.416-9.292-20.671-20.755-20.671Z"/><path fill="#363975" stroke="#ECD37E" d="M467.527 307.263c0-9.818 7.992-17.777 17.85-17.777h73.887c9.858 0 17.849 7.959 17.849 17.777 0 9.817-7.991 17.776-17.849 17.776h-73.887c-9.858 0-17.85-7.959-17.85-17.776Z"/><path fill="url(#m)" stroke="#ECD37E" d="M559.264 289.486h-73.888c-6.226 0-14.113 5.892-14.113 15.71 0 9.817 7.992 17.776 17.849 17.776H563c5.396 0 14.113-5.892 14.113-15.709 0-9.818-7.991-17.777-17.849-17.777Z"/><path fill="url(#n)" d="M560.924 284.525h-77.208a20.74 20.74 0 0 0-15.122 6.512l-.783.878c.253-.3.514-.593.783-.878l22.729-25.473c1.016-1.139 1.967-2.336 3.058-3.403 2.361-2.309 7.389-6.161 14.656-6.161h77.208c11.463 0 20.755 9.254 20.755 20.67v4.134c0 6.424-2.784 10.383-3.545 11.346-.111.14-.227.271-.344.404l-.047.052-24.889 28.221a20.518 20.518 0 0 0 3.504-11.497v-4.134c0-11.416-9.292-20.671-20.755-20.671Z"/><path stroke="#ECD37E" d="M560.924 330c11.463 0 20.755-9.254 20.755-20.67v-4.134c0-11.416-9.292-20.671-20.755-20.671h-77.208c-11.463 0-20.755 9.255-20.755 20.671m4.85-13.281 23.512-26.351c1.016-1.139 1.967-2.336 3.058-3.403 2.361-2.309 7.389-6.161 14.656-6.161h77.208c11.463 0 20.755 9.254 20.755 20.67v4.134c0 6.424-2.784 10.383-3.545 11.346-.125.158-.257.305-.391.456l-26.781 30.366m-80.944-10.542v10.335"/><path stroke="#ECD37E" d="M490.027 312.723h10.623v9.749h-10.623zm60.935-.293v10.335m-5.312-10.042h10.623v9.749H545.65zm-37.248 1.447h31.157a2.602 2.602 0 0 1 0 5.202h-31.157a2.601 2.601 0 1 1 0-5.202Z"/><rect width="36.359" height="5.201" x="505.801" y="303.628" stroke="#ECD37E" rx="2.601"/><rect width="36.359" height="5.201" x="505.801" y="292.88" stroke="#ECD37E" rx="2.601"/><path fill="#ECD37E" stroke="#ECD37E" d="M564.575 300.441c0 4.174-3.398 7.562-7.594 7.562-4.197 0-7.595-3.388-7.595-7.562s3.398-7.561 7.595-7.561c4.196 0 7.594 3.387 7.594 7.561Zm-63.925 0c0 4.174-3.398 7.562-7.594 7.562s-7.595-3.388-7.595-7.562 3.399-7.561 7.595-7.561 7.594 3.387 7.594 7.561Z"/><path fill="#000" fill-opacity=".44" d="M308.911 150.636a2.999 2.999 0 0 1 2.257-1.024h43.9c2.578 0 3.955 3.038 2.256 4.977l-5.552 6.339a3 3 0 0 1-2.256 1.023h-43.9c-2.578 0-3.956-3.037-2.257-4.977l5.552-6.338Z"/><path fill="url(#o)" stroke="#ECD37E" d="M353.505 135.074h10.498v14.828c0 .131-.064.293-.305.485-.246.196-.629.382-1.139.54-1.014.314-2.398.478-3.805.478s-2.79-.164-3.804-.478c-.51-.158-.893-.344-1.139-.54-.242-.192-.306-.354-.306-.485v-14.828Z"/><path fill="url(#p)" stroke="#ECD37E" d="M364.299 150.014c0 1.899-11.117 1.899-11.117 0l-3.494 7.38c0 3.771 18.132 3.771 18.132 0l-3.521-7.38Z"/><path fill="url(#q)" stroke="#ECD37E" d="M345.244 146.877h6.004v8.837c0 .002.004.05-.113.142-.123.098-.331.202-.629.295-.593.184-1.415.283-2.26.283-.845 0-1.667-.099-2.26-.283-.299-.093-.507-.197-.63-.295-.116-.092-.112-.14-.112-.142v-8.837Z"/><path fill="url(#r)" stroke="#ECD37E" d="M351.846 146.247c0 1.211-7.201 1.211-7.201 0l-1.921-4.937c0-2.297 11.044-2.297 11.044 0l-1.922 4.937Z"/><path fill="url(#s)" stroke="#ECD37E" d="M351.623 155.781c0 1.157-6.771 1.157-6.771 0l-2.128 4.496c0 2.297 11.044 2.297 11.044 0l-2.145-4.496Z"/><path fill="#5B5FA5" stroke="#ECD37E" d="M375.5 75.002c0 .625-.447 1.33-1.529 2.062-1.064.72-2.637 1.387-4.625 1.956-3.97 1.135-9.484 1.844-15.595 1.844-6.111 0-11.624-.709-15.595-1.844-1.988-.569-3.561-1.236-4.625-1.956-1.082-.731-1.529-1.437-1.529-2.062 0-.625.447-1.331 1.529-2.062 1.064-.72 2.637-1.388 4.625-1.956 3.971-1.135 9.484-1.844 15.595-1.844 6.111 0 11.625.709 15.595 1.844 1.988.568 3.561 1.236 4.625 1.956 1.082.73 1.529 1.437 1.529 2.062Z"/><path fill="url(#t)" stroke="#ECD37E" d="M331.502 126.863V74.809c0 7.904 44.498 8.483 44.498 0v52.054c0 10.218-44.498 10.218-44.498 0Z"/><path fill="url(#u)" stroke="#ECD37E" stroke-linecap="round" d="M376 74.809c0 8.29-44.498 7.712-44.498 0 0 0 3.096-8.097 10.061-13.495h24.764C373.291 65.94 376 74.808 376 74.808Z"/><path fill="url(#v)" d="M331.502 126.863c0 .616.196 1.192.562 1.726 1.143 3.151 4.101 9.701 9.499 11.769 7.545 2.892 17.799 3.085 24.764 0 5.347-2.368 8.185-9.055 9.215-12.033.279-.459.436-.946.458-1.462 0 0-.146.561-.458 1.462-4.38 7.215-38.662 7.303-43.478.264a23.21 23.21 0 0 1-.562-1.726Z"/><path stroke="#ECD37E" stroke-linecap="round" d="M331.502 126.863c0 9.254 44.111 9.254 44.498 0 0 0-2.709 10.41-9.673 13.495-6.965 3.085-17.219 2.892-24.764 0-7.201-2.759-10.061-13.495-10.061-13.495Z"/><path fill="#5B5FA5" stroke="#ECD37E" d="m365.828 61.3-.001.002.001-.002Zm-.09-.083c.052.047.075.08.084.096a.41.41 0 0 1-.084.097c-.109.1-.297.219-.587.347-.574.254-1.438.494-2.543.7-2.202.412-5.265.67-8.663.67-3.398 0-6.462-.258-8.664-.67-1.105-.206-1.968-.446-2.543-.7-.289-.128-.478-.247-.587-.346a.41.41 0 0 1-.084-.098.411.411 0 0 1 .084-.096c.109-.1.298-.219.587-.347.575-.254 1.438-.494 2.543-.7 2.202-.412 5.266-.67 8.664-.67 3.398 0 6.461.258 8.663.67 1.105.206 1.969.446 2.543.7.29.128.478.247.587.347Zm-23.677.083.001.002-.001-.002Zm0 .027.001-.002-.001.002Zm23.766-.002.001.002-.001-.002Z"/><path fill="#000" fill-opacity=".44" d="M246.911 150.636a2.999 2.999 0 0 1 2.257-1.024h43.9c2.578 0 3.955 3.038 2.256 4.977l-5.552 6.339a3 3 0 0 1-2.256 1.023h-43.9c-2.578 0-3.956-3.037-2.257-4.977l5.552-6.338Z"/><path fill="url(#w)" stroke="#ECD37E" d="M291.505 135.074h10.498v14.828c0 .131-.064.293-.305.485-.246.196-.629.382-1.139.54-1.014.314-2.398.478-3.805.478s-2.79-.164-3.804-.478c-.51-.158-.893-.344-1.139-.54-.242-.192-.306-.354-.306-.485v-14.828Z"/><path fill="url(#x)" stroke="#ECD37E" d="M302.299 150.014c0 1.899-11.117 1.899-11.117 0l-3.494 7.38c0 3.771 18.132 3.771 18.132 0l-3.521-7.38Z"/><path fill="url(#y)" stroke="#ECD37E" d="M283.244 146.877h6.004v8.837c0 .002.004.05-.113.142-.123.098-.331.202-.629.295-.593.184-1.415.283-2.26.283-.845 0-1.667-.099-2.26-.283-.299-.093-.507-.197-.63-.295-.116-.092-.112-.14-.112-.142v-8.837Z"/><path fill="url(#z)" stroke="#ECD37E" d="M289.846 146.247c0 1.211-7.201 1.211-7.201 0l-1.921-4.937c0-2.297 11.044-2.297 11.044 0l-1.922 4.937Z"/><path fill="url(#A)" stroke="#ECD37E" d="M289.623 155.781c0 1.157-6.771 1.157-6.771 0l-2.128 4.496c0 2.297 11.044 2.297 11.044 0l-2.145-4.496Z"/><path fill="#5B5FA5" stroke="#ECD37E" d="M313.5 75.002c0 .625-.447 1.33-1.529 2.062-1.064.72-2.637 1.387-4.625 1.956-3.97 1.135-9.484 1.844-15.595 1.844-6.111 0-11.624-.709-15.595-1.844-1.988-.569-3.561-1.236-4.625-1.956-1.082-.731-1.529-1.437-1.529-2.062 0-.625.447-1.331 1.529-2.062 1.064-.72 2.637-1.388 4.625-1.956 3.971-1.135 9.484-1.844 15.595-1.844 6.111 0 11.625.709 15.595 1.844 1.988.568 3.561 1.236 4.625 1.956 1.082.73 1.529 1.437 1.529 2.062Z"/><path fill="url(#B)" stroke="#ECD37E" d="M269.502 126.863V74.809c0 7.904 44.498 8.483 44.498 0v52.054c0 10.218-44.498 10.218-44.498 0Z"/><path fill="url(#C)" stroke="#ECD37E" stroke-linecap="round" d="M314 74.809c0 8.29-44.498 7.712-44.498 0 0 0 3.096-8.097 10.061-13.495h24.764C311.291 65.94 314 74.808 314 74.808Z"/><path fill="url(#D)" d="M269.502 126.863c0 .616.196 1.192.562 1.726 1.143 3.151 4.101 9.701 9.499 11.769 7.545 2.892 17.799 3.085 24.764 0 5.347-2.368 8.185-9.055 9.215-12.033.279-.459.436-.946.458-1.462 0 0-.146.561-.458 1.462-4.38 7.215-38.662 7.303-43.478.264a23.21 23.21 0 0 1-.562-1.726Z"/><path stroke="#ECD37E" stroke-linecap="round" d="M269.502 126.863c0 9.254 44.111 9.254 44.498 0 0 0-2.709 10.41-9.673 13.495-6.965 3.085-17.219 2.892-24.764 0-7.201-2.759-10.061-13.495-10.061-13.495Z"/><path fill="#5B5FA5" stroke="#ECD37E" d="m303.828 61.3-.001.002.001-.002Zm-.09-.083c.052.047.075.08.084.096a.41.41 0 0 1-.084.097c-.109.1-.297.219-.587.347-.574.254-1.438.494-2.543.7-2.202.412-5.265.67-8.663.67-3.398 0-6.462-.258-8.664-.67-1.105-.206-1.968-.446-2.543-.7-.289-.128-.478-.247-.587-.346a.41.41 0 0 1-.084-.098.411.411 0 0 1 .084-.096c.109-.1.298-.219.587-.347.575-.254 1.438-.494 2.543-.7 2.202-.412 5.266-.67 8.664-.67 3.398 0 6.461.258 8.663.67 1.105.206 1.969.446 2.543.7.29.128.478.247.587.347Zm-23.677.083.001.002-.001-.002Zm0 .027.001-.002-.001.002Zm23.766-.002.001.002-.001-.002Z"/><path fill="#000" fill-opacity=".44" d="M185.911 150.636a2.999 2.999 0 0 1 2.257-1.024h43.9c2.578 0 3.955 3.038 2.256 4.977l-5.552 6.339a3 3 0 0 1-2.256 1.023h-43.9c-2.578 0-3.956-3.037-2.257-4.977l5.552-6.338Z"/><path fill="url(#E)" stroke="#ECD37E" d="M230.505 135.074h10.498v14.828c0 .131-.064.293-.305.485-.246.196-.629.382-1.139.54-1.014.314-2.398.478-3.805.478s-2.79-.164-3.804-.478c-.51-.158-.893-.344-1.139-.54-.242-.192-.306-.354-.306-.485v-14.828Z"/><path fill="url(#F)" stroke="#ECD37E" d="M241.299 150.014c0 1.899-11.117 1.899-11.117 0l-3.494 7.38c0 3.771 18.132 3.771 18.132 0l-3.521-7.38Z"/><path fill="url(#G)" stroke="#ECD37E" d="M222.244 146.877h6.004v8.837c0 .002.004.05-.113.142-.123.098-.331.202-.629.295-.593.184-1.415.283-2.26.283-.845 0-1.667-.099-2.26-.283-.299-.093-.507-.197-.63-.295-.116-.092-.112-.14-.112-.142v-8.837Z"/><path fill="url(#H)" stroke="#ECD37E" d="M228.846 146.247c0 1.211-7.201 1.211-7.201 0l-1.921-4.937c0-2.297 11.044-2.297 11.044 0l-1.922 4.937Z"/><path fill="url(#I)" stroke="#ECD37E" d="M228.623 155.781c0 1.157-6.771 1.157-6.771 0l-2.128 4.496c0 2.297 11.044 2.297 11.044 0l-2.145-4.496Z"/><path fill="#5B5FA5" stroke="#ECD37E" d="M252.5 75.002c0 .625-.447 1.33-1.529 2.062-1.064.72-2.637 1.387-4.625 1.956-3.97 1.135-9.484 1.844-15.595 1.844-6.111 0-11.624-.709-15.595-1.844-1.988-.569-3.561-1.236-4.625-1.956-1.082-.731-1.529-1.437-1.529-2.062 0-.625.447-1.331 1.529-2.062 1.064-.72 2.637-1.388 4.625-1.956 3.971-1.135 9.484-1.844 15.595-1.844 6.111 0 11.625.709 15.595 1.844 1.988.568 3.561 1.236 4.625 1.956 1.082.73 1.529 1.437 1.529 2.062Z"/><path fill="url(#J)" stroke="#ECD37E" d="M208.502 126.863V74.809c0 7.904 44.498 8.483 44.498 0v52.054c0 10.218-44.498 10.218-44.498 0Z"/><path fill="url(#K)" stroke="#ECD37E" stroke-linecap="round" d="M253 74.809c0 8.29-44.498 7.712-44.498 0 0 0 3.096-8.097 10.061-13.495h24.764C250.291 65.94 253 74.808 253 74.808Z"/><path fill="url(#L)" d="M208.502 126.863c0 .616.196 1.192.562 1.726 1.143 3.151 4.101 9.701 9.499 11.769 7.545 2.892 17.799 3.085 24.764 0 5.347-2.368 8.185-9.055 9.215-12.033.279-.459.436-.946.458-1.462 0 0-.146.561-.458 1.462-4.38 7.215-38.662 7.303-43.478.264-.382-1.053-.562-1.726-.562-1.726Z"/><path stroke="#ECD37E" stroke-linecap="round" d="M208.502 126.863c0 9.254 44.111 9.254 44.498 0 0 0-2.709 10.41-9.673 13.495-6.965 3.085-17.219 2.892-24.764 0-7.201-2.759-10.061-13.495-10.061-13.495Z"/><path fill="#5B5FA5" stroke="#ECD37E" d="m242.828 61.3-.001.002.001-.002Zm-.09-.083c.052.047.075.08.084.096a.41.41 0 0 1-.084.097c-.109.1-.297.219-.587.347-.574.254-1.438.494-2.543.7-2.202.412-5.265.67-8.663.67-3.398 0-6.462-.258-8.664-.67-1.105-.206-1.968-.446-2.543-.7-.289-.128-.478-.247-.587-.346a.41.41 0 0 1-.084-.098.411.411 0 0 1 .084-.096c.109-.1.298-.219.587-.347.575-.254 1.438-.494 2.543-.7 2.202-.412 5.266-.67 8.664-.67 3.398 0 6.461.258 8.663.67 1.105.206 1.969.446 2.543.7.29.128.478.247.587.347Zm-23.677.083.001.002-.001-.002Zm0 .027.001-.002-.001.002Zm23.766-.002.001.002-.001-.002Z"/><path fill="#000" fill-opacity=".44" d="M286.911 173.636a2.999 2.999 0 0 1 2.257-1.024h43.9c2.578 0 3.955 3.038 2.256 4.977l-5.552 6.339a3 3 0 0 1-2.256 1.023h-43.9c-2.578 0-3.956-3.037-2.257-4.977l5.552-6.338Z"/><path fill="url(#M)" stroke="#ECD37E" d="M331.505 158.074h10.498v14.828c0 .131-.064.293-.305.485-.246.196-.629.382-1.139.54-1.014.314-2.398.478-3.805.478s-2.79-.164-3.804-.478c-.51-.158-.893-.344-1.139-.54-.242-.192-.306-.354-.306-.485v-14.828Z"/><path fill="url(#N)" stroke="#ECD37E" d="M342.299 173.014c0 1.899-11.117 1.899-11.117 0l-3.494 7.38c0 3.771 18.132 3.771 18.132 0l-3.521-7.38Z"/><path fill="url(#O)" stroke="#ECD37E" d="M323.244 169.877h6.004v8.837c0 .002.004.05-.113.142-.123.098-.331.202-.629.295-.593.184-1.415.283-2.26.283-.845 0-1.667-.099-2.26-.283-.299-.093-.507-.197-.63-.295-.116-.092-.112-.14-.112-.142v-8.837Z"/><path fill="url(#P)" stroke="#ECD37E" d="M329.846 169.247c0 1.211-7.201 1.211-7.201 0l-1.921-4.937c0-2.297 11.044-2.297 11.044 0l-1.922 4.937Z"/><path fill="url(#Q)" stroke="#ECD37E" d="M329.623 178.781c0 1.157-6.771 1.157-6.771 0l-2.128 4.496c0 2.297 11.044 2.297 11.044 0l-2.145-4.496Z"/><path fill="#5B5FA5" stroke="#ECD37E" d="M353.5 98.002c0 .625-.447 1.33-1.529 2.062-1.064.719-2.637 1.387-4.625 1.956-3.97 1.135-9.484 1.844-15.595 1.844-6.111 0-11.624-.709-15.595-1.844-1.988-.569-3.561-1.237-4.625-1.956-1.082-.731-1.529-1.437-1.529-2.062 0-.625.447-1.331 1.529-2.062 1.064-.72 2.637-1.388 4.625-1.956 3.971-1.135 9.484-1.844 15.595-1.844 6.111 0 11.625.709 15.595 1.844 1.988.568 3.561 1.236 4.625 1.956 1.082.73 1.529 1.437 1.529 2.062Z"/><path fill="url(#R)" stroke="#ECD37E" d="M309.502 149.863V97.809c0 7.904 44.498 8.483 44.498 0v52.054c0 10.218-44.498 10.218-44.498 0Z"/><path fill="url(#S)" stroke="#ECD37E" stroke-linecap="round" d="M354 97.809c0 8.29-44.498 7.712-44.498 0 0 0 3.096-8.097 10.061-13.495h24.764C351.291 88.94 354 97.809 354 97.809Z"/><path fill="url(#T)" d="M309.502 149.863c0 .616.196 1.192.562 1.726 1.143 3.151 4.101 9.701 9.499 11.769 7.545 2.892 17.799 3.085 24.764 0 5.347-2.368 8.185-9.055 9.215-12.033.279-.459.436-.946.458-1.462 0 0-.146.561-.458 1.462-4.38 7.215-38.662 7.303-43.478.264a23.21 23.21 0 0 1-.562-1.726Z"/><path stroke="#ECD37E" stroke-linecap="round" d="M309.502 149.863c0 9.254 44.111 9.254 44.498 0 0 0-2.709 10.41-9.673 13.495-6.965 3.085-17.219 2.892-24.764 0-7.201-2.759-10.061-13.495-10.061-13.495Z"/><path fill="#5B5FA5" stroke="#ECD37E" d="m343.828 84.3-.001.002.001-.002Zm-.09-.084a.39.39 0 0 1 .084.098.41.41 0 0 1-.084.097c-.109.099-.297.218-.587.346-.574.254-1.438.494-2.543.7-2.202.412-5.265.67-8.663.67-3.398 0-6.462-.258-8.664-.67-1.105-.206-1.968-.446-2.543-.7-.289-.128-.478-.247-.587-.347a.41.41 0 0 1-.084-.096.411.411 0 0 1 .084-.097c.109-.1.298-.219.587-.347.575-.254 1.438-.494 2.543-.7 2.202-.412 5.266-.67 8.664-.67 3.398 0 6.461.258 8.663.67 1.105.206 1.969.446 2.543.7.29.128.478.247.587.346Zm-23.677.084.001.002-.001-.002Zm0 .027.001-.002a.003.003 0 0 1-.001.002Zm23.766-.002.001.002-.001-.002Z"/><path fill="#000" fill-opacity=".44" d="M224.911 173.636a2.999 2.999 0 0 1 2.257-1.024h43.9c2.578 0 3.955 3.038 2.256 4.977l-5.552 6.339a3 3 0 0 1-2.256 1.023h-43.9c-2.578 0-3.956-3.037-2.257-4.977l5.552-6.338Z"/><path fill="url(#U)" stroke="#ECD37E" d="M269.505 158.074h10.498v14.828c0 .131-.064.293-.305.485-.246.196-.629.382-1.139.54-1.014.314-2.398.478-3.805.478s-2.79-.164-3.804-.478c-.51-.158-.893-.344-1.139-.54-.242-.192-.306-.354-.306-.485v-14.828Z"/><path fill="url(#V)" stroke="#ECD37E" d="M280.299 173.014c0 1.899-11.117 1.899-11.117 0l-3.494 7.38c0 3.771 18.132 3.771 18.132 0l-3.521-7.38Z"/><path fill="url(#W)" stroke="#ECD37E" d="M261.244 169.877h6.004v8.837c0 .002.004.05-.113.142-.123.098-.331.202-.629.295-.593.184-1.415.283-2.26.283-.845 0-1.667-.099-2.26-.283-.299-.093-.507-.197-.63-.295-.116-.092-.112-.14-.112-.142v-8.837Z"/><path fill="url(#X)" stroke="#ECD37E" d="M267.846 169.247c0 1.211-7.201 1.211-7.201 0l-1.921-4.937c0-2.297 11.044-2.297 11.044 0l-1.922 4.937Z"/><path fill="url(#Y)" stroke="#ECD37E" d="M267.623 178.781c0 1.157-6.771 1.157-6.771 0l-2.128 4.496c0 2.297 11.044 2.297 11.044 0l-2.145-4.496Z"/><path fill="#5B5FA5" stroke="#ECD37E" d="M291.5 98.002c0 .625-.447 1.33-1.529 2.062-1.064.719-2.637 1.387-4.625 1.956-3.97 1.135-9.484 1.844-15.595 1.844-6.111 0-11.624-.709-15.595-1.844-1.988-.569-3.561-1.237-4.625-1.956-1.082-.731-1.529-1.437-1.529-2.062 0-.625.447-1.331 1.529-2.062 1.064-.72 2.637-1.388 4.625-1.956 3.971-1.135 9.484-1.844 15.595-1.844 6.111 0 11.625.709 15.595 1.844 1.988.568 3.561 1.236 4.625 1.956 1.082.73 1.529 1.437 1.529 2.062Z"/><path fill="url(#Z)" stroke="#ECD37E" d="M247.502 149.863V97.809c0 7.904 44.498 8.483 44.498 0v52.054c0 10.218-44.498 10.218-44.498 0Z"/><path fill="url(#aa)" stroke="#ECD37E" stroke-linecap="round" d="M292 97.809c0 8.29-44.498 7.712-44.498 0 0 0 3.096-8.097 10.061-13.495h24.764C289.291 88.94 292 97.809 292 97.809Z"/><path fill="url(#ab)" d="M247.502 149.863c0 .616.196 1.192.562 1.726 1.143 3.151 4.101 9.701 9.499 11.769 7.545 2.892 17.799 3.085 24.764 0 5.347-2.368 8.185-9.055 9.215-12.033.279-.459.436-.946.458-1.462 0 0-.146.561-.458 1.462-4.38 7.215-38.662 7.303-43.478.264-.382-1.053-.562-1.726-.562-1.726Z"/><path stroke="#ECD37E" stroke-linecap="round" d="M247.502 149.863c0 9.254 44.111 9.254 44.498 0 0 0-2.709 10.41-9.673 13.495-6.965 3.085-17.219 2.892-24.764 0-7.201-2.759-10.061-13.495-10.061-13.495Z"/><path fill="#5B5FA5" stroke="#ECD37E" d="m281.828 84.3-.001.002.001-.002Zm-.09-.084a.39.39 0 0 1 .084.098.41.41 0 0 1-.084.097c-.109.099-.297.218-.587.346-.574.254-1.438.494-2.543.7-2.202.412-5.265.67-8.663.67-3.398 0-6.462-.258-8.664-.67-1.105-.206-1.968-.446-2.543-.7-.289-.128-.478-.247-.587-.347a.41.41 0 0 1-.084-.096.411.411 0 0 1 .084-.097c.109-.1.298-.219.587-.347.575-.254 1.438-.494 2.543-.7 2.202-.412 5.266-.67 8.664-.67 3.398 0 6.461.258 8.663.67 1.105.206 1.969.446 2.543.7.29.128.478.247.587.346Zm-23.677.084.001.002-.001-.002Zm0 .027.001-.002a.003.003 0 0 1-.001.002Zm23.766-.002.001.002-.001-.002Z"/><path fill="#000" fill-opacity=".44" d="M163.911 173.636a2.999 2.999 0 0 1 2.257-1.024h43.9c2.578 0 3.955 3.038 2.256 4.977l-5.552 6.339a3 3 0 0 1-2.256 1.023h-43.9c-2.578 0-3.956-3.037-2.257-4.977l5.552-6.338Z"/><path fill="url(#ac)" stroke="#ECD37E" d="M208.505 158.074h10.498v14.828c0 .131-.064.293-.305.485-.246.196-.629.382-1.139.54-1.014.314-2.398.478-3.805.478s-2.79-.164-3.804-.478c-.51-.158-.893-.344-1.139-.54-.242-.192-.306-.354-.306-.485v-14.828Z"/><path fill="url(#ad)" stroke="#ECD37E" d="M219.299 173.014c0 1.899-11.117 1.899-11.117 0l-3.494 7.38c0 3.771 18.132 3.771 18.132 0l-3.521-7.38Z"/><path fill="url(#ae)" stroke="#ECD37E" d="M200.244 169.877h6.004v8.837c0 .002.004.05-.113.142-.123.098-.331.202-.629.295-.593.184-1.415.283-2.26.283-.845 0-1.667-.099-2.26-.283-.299-.093-.507-.197-.63-.295-.116-.092-.112-.14-.112-.142v-8.837Z"/><path fill="url(#af)" stroke="#ECD37E" d="M206.846 169.247c0 1.211-7.201 1.211-7.201 0l-1.921-4.937c0-2.297 11.044-2.297 11.044 0l-1.922 4.937Z"/><path fill="url(#ag)" stroke="#ECD37E" d="M206.623 178.781c0 1.157-6.771 1.157-6.771 0l-2.128 4.496c0 2.297 11.044 2.297 11.044 0l-2.145-4.496Z"/><path fill="#5B5FA5" stroke="#ECD37E" d="M230.5 98.002c0 .625-.447 1.33-1.529 2.062-1.064.719-2.637 1.387-4.625 1.956-3.97 1.135-9.484 1.844-15.595 1.844-6.111 0-11.624-.709-15.595-1.844-1.988-.569-3.561-1.237-4.625-1.956-1.082-.731-1.529-1.437-1.529-2.062 0-.625.447-1.331 1.529-2.062 1.064-.72 2.637-1.388 4.625-1.956 3.971-1.135 9.484-1.844 15.595-1.844 6.111 0 11.625.709 15.595 1.844 1.988.568 3.561 1.236 4.625 1.956 1.082.73 1.529 1.437 1.529 2.062Z"/><path fill="url(#ah)" stroke="#ECD37E" d="M186.502 149.863V97.809c0 7.904 44.498 8.483 44.498 0v52.054c0 10.218-44.498 10.218-44.498 0Z"/><path fill="url(#ai)" stroke="#ECD37E" stroke-linecap="round" d="M231 97.809c0 8.29-44.498 7.712-44.498 0 0 0 3.096-8.097 10.061-13.495h24.764C228.291 88.94 231 97.809 231 97.809Z"/><path fill="url(#aj)" d="M186.502 149.863c0 .616.196 1.192.562 1.726 1.143 3.151 4.101 9.701 9.499 11.769 7.545 2.892 17.799 3.085 24.764 0 5.347-2.368 8.185-9.055 9.215-12.033.279-.459.436-.946.458-1.462 0 0-.146.561-.458 1.462-4.38 7.215-38.662 7.303-43.478.264-.382-1.053-.562-1.726-.562-1.726Z"/><path stroke="#ECD37E" stroke-linecap="round" d="M186.502 149.863c0 9.254 44.111 9.254 44.498 0 0 0-2.709 10.41-9.673 13.495-6.965 3.085-17.219 2.892-24.764 0-7.201-2.759-10.061-13.495-10.061-13.495Z"/><path fill="#5B5FA5" stroke="#ECD37E" d="m220.828 84.3-.001.002.001-.002Zm-.09-.084a.39.39 0 0 1 .084.098.41.41 0 0 1-.084.097c-.109.099-.297.218-.587.346-.574.254-1.438.494-2.543.7-2.202.412-5.265.67-8.663.67-3.398 0-6.462-.258-8.664-.67-1.105-.206-1.968-.446-2.543-.7-.289-.128-.478-.247-.587-.347a.41.41 0 0 1-.084-.096.411.411 0 0 1 .084-.097c.109-.1.298-.219.587-.347.575-.254 1.438-.494 2.543-.7 2.202-.412 5.266-.67 8.664-.67 3.398 0 6.461.258 8.663.67 1.105.206 1.969.446 2.543.7.29.128.478.247.587.346Zm-23.677.084.001.002-.001-.002Zm0 .027.001-.002a.003.003 0 0 1-.001.002Zm23.766-.002.001.002-.001-.002Z"/><path fill="#000" fill-opacity=".19" d="M283.461 225.106a9.996 9.996 0 0 1 5.541-1.676h28.002c5.523 0 10 4.477 10 10v9.277c0 5.523-4.477 10-10 10h-41.938c-9.897 0-13.78-12.839-5.541-18.324l13.936-9.277Z"/><path fill="#2E337D" stroke="#ECD37E" d="M373.972 189.129 360.06 205.06c-.554.634-1.188 1.105-1.864 1.392v46.225c.676-.287 1.31-.757 1.864-1.392l13.191-15.105a5.85 5.85 0 0 0 1.153-1.98c.415-1.224 1.005-3.296 1.175-5.597l.38-44.764c-.093 1.924-.717 3.835-1.987 5.29Z"/><path fill="#0A0E50" d="M356.622 206.774h-53.123c-3.115 0-5.181-3.331-5.42-6.954v46.226c0 6.954 5.42 6.954 5.42 6.954h53.123c.539 0 1.072-.112 1.58-.328v-46.226a4.026 4.026 0 0 1-1.58.328Z"/><path stroke="#ECD37E" d="M298.079 199.517v.303m60.123 53.054v-.202m0-46.454v.228m-60.123-6.626c.239 3.623 2.305 6.954 5.42 6.954h53.123c.539 0 1.072-.112 1.58-.328m-60.123-6.626v46.226c0 6.954 5.42 6.954 5.42 6.954h53.123c.539 0 1.072-.112 1.58-.328m0 0v-46.226"/><path fill="#5B5FA5" stroke="#ECD37E" d="M370.557 176h-53.123c-1.256 0-2.473.608-3.444 1.72l-13.912 15.931c-1.536 1.759-2.128 4.188-1.976 6.498.239 3.623 2.305 6.954 5.42 6.954h53.123c.54 0 1.072-.112 1.58-.328.676-.287 1.31-.757 1.865-1.392l13.911-15.931c1.27-1.454 1.894-3.365 1.987-5.289.195-4.054-1.971-8.163-5.431-8.163Z"/><rect width="48.996" height="8.783" x="303.392" y="216.403" fill="#ECD37E" rx="4.392"/><rect width="48.996" height="8.783" x="303.392" y="237.483" fill="#ECD37E" rx="4.392"/><path fill="#000" fill-opacity=".37" d="M96.02 296.251h61.833l-32.021 30.633H64l32.02-30.633Z"/><path fill="#0A0E50" stroke="#ECD37E" d="M151.168 326.867h-35.842l14.298-107.475h21.996l-.452 107.475Z"/><path fill="#2F337D" stroke="#ECD37E" d="M151.754 325.989V219.363l35.661-27.236v106.626l-35.661 27.236Z"/><mask id="ak" fill="#fff"><path d="m166.472 191 21.443.116L151.506 219h-22.249l37.215-28Z"/></mask><path fill="#5B5FA5" d="m166.472 191 21.443.116L151.506 219h-22.249l37.215-28Z"/><path fill="#ECD37E" d="m166.472 191 .006-1-.338-.002-.269.203.601.799Zm21.443.116.608.794 2.322-1.778-2.925-.016-.005 1ZM151.506 219v1h.339l.269-.207-.608-.793Zm-22.249 0-.601-.8.601 1.8v-1Zm37.21-27 21.442.116.011-2-21.442-.116-.011 2Zm20.84-1.678-36.409 27.884 1.216 1.587 36.409-27.883-1.216-1.588ZM151.506 218h-22.249v2h22.249v-2Zm-21.648 1.799 37.215-28-1.202-1.598-37.215 27.999 1.202 1.599Z" mask="url(#ak)"/><path fill="#ECD37E" d="M134.39 239.698h10.265v87.186H134.39z"/><path fill="#000" fill-opacity=".43" d="m181.1 314.779-2.389-9.023c0-70.994-20.626-53.345-20.626 16.056l16.853-2.654h22.763l5.911-4.379H181.1Z"/><path fill="url(#al)" stroke="#ECD37E" d="M192.29 299.898h12.079v17.017c0 .18-.089.383-.374.611-.289.231-.734.447-1.318.628-1.162.362-2.743.55-4.347.55-1.605 0-3.185-.188-4.348-.55-.583-.181-1.028-.397-1.318-.628-.284-.228-.374-.431-.374-.611v-17.017Z"/><path fill="url(#am)" stroke="#ECD37E" d="M205.054 299.153c0 2.273-13.448 2.273-13.448 0l-3.589-9.261c0-4.31 20.626-4.31 20.626 0l-3.589 9.261Z"/><path fill="url(#an)" stroke="#ECD37E" d="M227.511 262.243c0 17.045-13.09 30.817-29.181 30.817s-29.18-13.772-29.18-30.817c0-17.046 13.089-30.817 29.18-30.817s29.181 13.771 29.181 30.817Z"/><path fill="#0A0E50" stroke="#ECD37E" d="M215.308 327h35.843l-13.96-79.62h-21.883V327Z"/><path fill="#2F337D" stroke="#ECD37E" d="m251.501 326.106-13.89-78.645 35.953-27.319 13.891 78.645-35.954 27.319Z"/><path fill="#5B5FA5" stroke="#ECD37E" d="m216.793 246.882 35.533-27h20.23l-35.533 27h-20.23Z"/><path fill="#ECD37E" d="M220.177 267.975h10.998v58.909h-10.998z"/><path fill="#000" fill-opacity=".19" d="M327.634 286.1a10 10 0 0 1 7.507-3.393h24.307c5.523 0 10 4.477 10 10V320c0 5.523-4.477 10-10 10h-48.326c-8.606 0-13.192-10.147-7.507-16.606l24.019-27.294Z"/><path fill="#171B61" stroke="#ECD37E" d="M419.924 284.525h-77.208c-11.463 0-20.755 9.255-20.755 20.671v4.134c0 11.416 9.292 20.67 20.755 20.67h77.208c11.463 0 20.755-9.254 20.755-20.67v-4.134c0-11.416-9.292-20.671-20.755-20.671Z"/><path fill="#363975" stroke="#ECD37E" d="M326.527 307.263c0-9.818 7.992-17.777 17.85-17.777h73.887c9.858 0 17.849 7.959 17.849 17.777 0 9.817-7.991 17.776-17.849 17.776h-73.887c-9.858 0-17.85-7.959-17.85-17.776Z"/><path fill="url(#ao)" stroke="#ECD37E" d="M418.264 289.486h-73.888c-6.226 0-14.113 5.892-14.113 15.71 0 9.817 7.992 17.776 17.849 17.776H422c5.396 0 14.113-5.892 14.113-15.709 0-9.818-7.991-17.777-17.849-17.777Z"/><path fill="url(#ap)" d="M419.924 284.525h-77.208a20.74 20.74 0 0 0-15.122 6.512l-.783.878c.253-.3.514-.593.783-.878l22.729-25.473c1.016-1.139 1.967-2.336 3.058-3.403 2.361-2.309 7.389-6.161 14.656-6.161h77.208c11.463 0 20.755 9.254 20.755 20.67v4.134c0 6.424-2.784 10.383-3.545 11.346-.111.14-.227.271-.344.404l-.047.052-24.889 28.221a20.518 20.518 0 0 0 3.504-11.497v-4.134c0-11.416-9.292-20.671-20.755-20.671Z"/><path stroke="#ECD37E" d="M419.924 330c11.463 0 20.755-9.254 20.755-20.67v-4.134c0-11.416-9.292-20.671-20.755-20.671h-77.208c-11.463 0-20.755 9.255-20.755 20.671m4.85-13.281 23.512-26.351c1.016-1.139 1.967-2.336 3.058-3.403 2.361-2.309 7.389-6.161 14.656-6.161h77.208c11.463 0 20.755 9.254 20.755 20.67v4.134c0 6.424-2.784 10.383-3.545 11.346-.125.158-.257.305-.391.456l-26.781 30.366m-80.944-10.542v10.335"/><path stroke="#ECD37E" d="M349.027 312.723h10.623v9.749h-10.623zm60.935-.293v10.335m-5.312-10.042h10.623v9.749H404.65zm-37.248 1.447h31.157a2.602 2.602 0 0 1 0 5.202h-31.157a2.601 2.601 0 1 1 0-5.202Z"/><rect width="36.359" height="5.201" x="364.801" y="303.628" stroke="#ECD37E" rx="2.601"/><rect width="36.359" height="5.201" x="364.801" y="292.88" stroke="#ECD37E" rx="2.601"/><path fill="#ECD37E" stroke="#ECD37E" d="M423.575 300.441c0 4.174-3.398 7.562-7.594 7.562-4.197 0-7.595-3.388-7.595-7.562s3.398-7.561 7.595-7.561c4.196 0 7.594 3.387 7.594 7.561Zm-63.925 0c0 4.174-3.398 7.562-7.594 7.562s-7.595-3.388-7.595-7.562 3.399-7.561 7.595-7.561 7.594 3.387 7.594 7.561Z"/><path fill="#2F337D" stroke="#ECD37E" d="M201.978 363.158H67c-12.979 0-23.5 10.522-23.5 23.5v35.605c0 12.979 10.521 23.5 23.5 23.5h134.978c12.979 0 23.5-10.521 23.5-23.5v-35.605c0-12.978-10.521-23.5-23.5-23.5Z"/><path fill="#000" d="M44 420.913h180.978c0 13.448-10.902 24.35-24.35 24.35H68.35c-13.448 0-24.35-10.902-24.35-24.35Z"/><path fill="#252525" d="M76.247 394.26h148.731v27.311H44l32.247-27.311Z"/><path fill="#5B5FA5" d="M76.247 363.658h118.731c16.569 0 30 13.432 30 30v.931H76.248v-30.931Z"/><rect width="141.176" height="58" x="122.5" y="455.5" fill="#2F337D" stroke="#ECD37E" rx="17.5"/><path fill="#1A6707" d="M123 495.992h140.176c0 9.393-7.615 17.008-17.008 17.008h-106.16c-9.393 0-17.008-7.615-17.008-17.008Z"/><path fill="#2E9115" d="M143.5 477.375h119.676v19.076H123l20.5-19.076Z"/><path fill="#5B5FA5" d="M144 456h102.176c9.389 0 17 7.611 17 17v4.605H144V456Z"/><rect width="279.948" height="63.065" x="20.5" y="524.5" fill="#2F337D" stroke="#ECD37E" rx="16.5"/><path fill="#640D51" d="M21 568.546h278.948c0 10.228-8.291 18.519-18.519 18.519H39.519c-10.228 0-18.519-8.291-18.519-18.519Z"/><path fill="#991C7E" d="M48.5 548.274h251.448v20.772H21l27.5-20.772Z"/><path fill="#5B5FA5" d="M49 525h233.948c9.389 0 17 7.611 17 17v6.525H49V525Z"/><path fill="url(#aq)" stroke="#ECD37E" d="M193.049 363.5h10v45.49c0 1.882-.642 3.251-1.567 4.149-.93.904-2.177 1.361-3.433 1.361-1.255 0-2.502-.457-3.433-1.361-.924-.898-1.567-2.267-1.567-4.149V363.5Z"/><defs><linearGradient id="a" x1="735.434" x2="596.358" y1="136.784" y2="135.312" gradientUnits="userSpaceOnUse"><stop stop-color="#5B5FA5"/><stop offset=".339" stop-color="#2F337D"/><stop offset=".636" stop-color="#2F337D"/><stop offset="1" stop-color="#0A0E50"/></linearGradient><linearGradient id="b" x1="615.49" x2="717.038" y1="70.608" y2="69.626" gradientUnits="userSpaceOnUse"><stop stop-color="#DFBF28"/><stop offset=".506" stop-color="#ECD37E"/><stop offset="1" stop-color="#F4ECCF"/></linearGradient><linearGradient id="c" x1="617.943" x2="714.585" y1="38.99" y2="38.254" gradientUnits="userSpaceOnUse"><stop stop-color="#DAB847"/><stop offset=".51" stop-color="#ECD37E"/><stop offset="1" stop-color="#F0E2B0"/></linearGradient><linearGradient id="d" x1="608.623" x2="724.396" y1="103.946" y2="102.815" gradientUnits="userSpaceOnUse"><stop stop-color="#DFBF28"/><stop offset=".506" stop-color="#ECD37E"/><stop offset="1" stop-color="#F4ECCF"/></linearGradient><linearGradient id="e" x1="595.132" x2="737.887" y1="139.265" y2="137.884" gradientUnits="userSpaceOnUse"><stop stop-color="#DFBF28"/><stop offset=".506" stop-color="#ECD37E"/><stop offset="1" stop-color="#F4ECCF"/></linearGradient><linearGradient id="f" x1="547.434" x2="408.358" y1="136.784" y2="135.312" gradientUnits="userSpaceOnUse"><stop stop-color="#5B5FA5"/><stop offset=".339" stop-color="#2F337D"/><stop offset=".636" stop-color="#2F337D"/><stop offset="1" stop-color="#0A0E50"/></linearGradient><linearGradient id="g" x1="427.49" x2="529.038" y1="70.608" y2="69.626" gradientUnits="userSpaceOnUse"><stop stop-color="#DFBF28"/><stop offset=".506" stop-color="#ECD37E"/><stop offset="1" stop-color="#F4ECCF"/></linearGradient><linearGradient id="h" x1="429.943" x2="526.585" y1="38.99" y2="38.254" gradientUnits="userSpaceOnUse"><stop stop-color="#DAB847"/><stop offset=".51" stop-color="#ECD37E"/><stop offset="1" stop-color="#F0E2B0"/></linearGradient><linearGradient id="i" x1="420.623" x2="536.396" y1="103.946" y2="102.815" gradientUnits="userSpaceOnUse"><stop stop-color="#DFBF28"/><stop offset=".506" stop-color="#ECD37E"/><stop offset="1" stop-color="#F4ECCF"/></linearGradient><linearGradient id="j" x1="407.132" x2="549.887" y1="139.265" y2="137.884" gradientUnits="userSpaceOnUse"><stop stop-color="#DFBF28"/><stop offset=".506" stop-color="#ECD37E"/><stop offset="1" stop-color="#F4ECCF"/></linearGradient><linearGradient id="l" x1="520.605" x2="574.126" y1="229.271" y2="229.075" gradientUnits="userSpaceOnUse"><stop stop-color="#DFBF28"/><stop offset=".506" stop-color="#ECD37E"/><stop offset="1" stop-color="#F4ECCF"/></linearGradient><linearGradient id="m" x1="554.283" x2="554.283" y1="289.486" y2="297.341" gradientUnits="userSpaceOnUse"><stop stop-color="#000110"/><stop offset="1" stop-color="#171B61"/></linearGradient><linearGradient id="n" x1="589.981" x2="570.77" y1="295.894" y2="273.286" gradientUnits="userSpaceOnUse"><stop/><stop offset="1" stop-color="#5B5FA5"/></linearGradient><linearGradient id="o" x1="354.332" x2="364.504" y1="144.445" y2="144.339" gradientUnits="userSpaceOnUse"><stop stop-color="#11155F"/><stop offset=".735" stop-color="#5D60A0"/><stop offset="1" stop-color="#494E91"/></linearGradient><linearGradient id="p" x1="351.781" x2="367.81" y1="155.828" y2="155.384" gradientUnits="userSpaceOnUse"><stop stop-color="#11155F"/><stop offset=".735" stop-color="#5D60A0"/><stop offset="1" stop-color="#494E91"/></linearGradient><linearGradient id="q" x1="345.552" x2="351.748" y1="152.389" y2="152.325" gradientUnits="userSpaceOnUse"><stop stop-color="#11155F"/><stop offset=".735" stop-color="#5D60A0"/><stop offset="1" stop-color="#494E91"/></linearGradient><linearGradient id="r" x1="343.998" x2="353.764" y1="142.845" y2="143.067" gradientUnits="userSpaceOnUse"><stop stop-color="#11155F"/><stop offset=".735" stop-color="#5D60A0"/><stop offset="1" stop-color="#494E91"/></linearGradient><linearGradient id="s" x1="343.998" x2="353.762" y1="159.323" y2="159.052" gradientUnits="userSpaceOnUse"><stop stop-color="#11155F"/><stop offset=".735" stop-color="#5D60A0"/><stop offset="1" stop-color="#494E91"/></linearGradient><linearGradient id="t" x1="336.637" x2="375.999" y1="108.819" y2="108.361" gradientUnits="userSpaceOnUse"><stop stop-color="#11155F"/><stop offset=".735" stop-color="#5D60A0"/><stop offset="1" stop-color="#494E91"/></linearGradient><linearGradient id="u" x1="336.637" x2="375.955" y1="72.418" y2="71.018" gradientUnits="userSpaceOnUse"><stop stop-color="#11155F"/><stop offset=".735" stop-color="#5D60A0"/><stop offset="1" stop-color="#494E91"/></linearGradient><linearGradient id="v" x1="336.637" x2="375.928" y1="133.638" y2="135.37" gradientUnits="userSpaceOnUse"><stop stop-color="#11155F"/><stop offset=".735" stop-color="#5D60A0"/><stop offset="1" stop-color="#494E91"/></linearGradient><linearGradient id="w" x1="292.332" x2="302.504" y1="144.445" y2="144.339" gradientUnits="userSpaceOnUse"><stop stop-color="#11155F"/><stop offset=".735" stop-color="#5D60A0"/><stop offset="1" stop-color="#494E91"/></linearGradient><linearGradient id="x" x1="289.781" x2="305.81" y1="155.828" y2="155.384" gradientUnits="userSpaceOnUse"><stop stop-color="#11155F"/><stop offset=".735" stop-color="#5D60A0"/><stop offset="1" stop-color="#494E91"/></linearGradient><linearGradient id="y" x1="283.552" x2="289.748" y1="152.389" y2="152.325" gradientUnits="userSpaceOnUse"><stop stop-color="#11155F"/><stop offset=".735" stop-color="#5D60A0"/><stop offset="1" stop-color="#494E91"/></linearGradient><linearGradient id="z" x1="281.998" x2="291.764" y1="142.845" y2="143.067" gradientUnits="userSpaceOnUse"><stop stop-color="#11155F"/><stop offset=".735" stop-color="#5D60A0"/><stop offset="1" stop-color="#494E91"/></linearGradient><linearGradient id="A" x1="281.998" x2="291.762" y1="159.323" y2="159.052" gradientUnits="userSpaceOnUse"><stop stop-color="#11155F"/><stop offset=".735" stop-color="#5D60A0"/><stop offset="1" stop-color="#494E91"/></linearGradient><linearGradient id="B" x1="274.637" x2="313.999" y1="108.819" y2="108.361" gradientUnits="userSpaceOnUse"><stop stop-color="#11155F"/><stop offset=".735" stop-color="#5D60A0"/><stop offset="1" stop-color="#494E91"/></linearGradient><linearGradient id="C" x1="274.637" x2="313.955" y1="72.418" y2="71.018" gradientUnits="userSpaceOnUse"><stop stop-color="#11155F"/><stop offset=".735" stop-color="#5D60A0"/><stop offset="1" stop-color="#494E91"/></linearGradient><linearGradient id="D" x1="274.637" x2="313.928" y1="133.638" y2="135.37" gradientUnits="userSpaceOnUse"><stop stop-color="#11155F"/><stop offset=".735" stop-color="#5D60A0"/><stop offset="1" stop-color="#494E91"/></linearGradient><linearGradient id="E" x1="231.332" x2="241.504" y1="144.445" y2="144.339" gradientUnits="userSpaceOnUse"><stop stop-color="#11155F"/><stop offset=".735" stop-color="#5D60A0"/><stop offset="1" stop-color="#494E91"/></linearGradient><linearGradient id="F" x1="228.781" x2="244.81" y1="155.828" y2="155.384" gradientUnits="userSpaceOnUse"><stop stop-color="#11155F"/><stop offset=".735" stop-color="#5D60A0"/><stop offset="1" stop-color="#494E91"/></linearGradient><linearGradient id="G" x1="222.552" x2="228.748" y1="152.389" y2="152.325" gradientUnits="userSpaceOnUse"><stop stop-color="#11155F"/><stop offset=".735" stop-color="#5D60A0"/><stop offset="1" stop-color="#494E91"/></linearGradient><linearGradient id="H" x1="220.998" x2="230.764" y1="142.845" y2="143.067" gradientUnits="userSpaceOnUse"><stop stop-color="#11155F"/><stop offset=".735" stop-color="#5D60A0"/><stop offset="1" stop-color="#494E91"/></linearGradient><linearGradient id="I" x1="220.998" x2="230.762" y1="159.323" y2="159.052" gradientUnits="userSpaceOnUse"><stop stop-color="#11155F"/><stop offset=".735" stop-color="#5D60A0"/><stop offset="1" stop-color="#494E91"/></linearGradient><linearGradient id="J" x1="213.637" x2="252.999" y1="108.819" y2="108.361" gradientUnits="userSpaceOnUse"><stop stop-color="#11155F"/><stop offset=".735" stop-color="#5D60A0"/><stop offset="1" stop-color="#494E91"/></linearGradient><linearGradient id="K" x1="213.637" x2="252.955" y1="72.418" y2="71.018" gradientUnits="userSpaceOnUse"><stop stop-color="#11155F"/><stop offset=".735" stop-color="#5D60A0"/><stop offset="1" stop-color="#494E91"/></linearGradient><linearGradient id="L" x1="213.637" x2="252.928" y1="133.638" y2="135.37" gradientUnits="userSpaceOnUse"><stop stop-color="#11155F"/><stop offset=".735" stop-color="#5D60A0"/><stop offset="1" stop-color="#494E91"/></linearGradient><linearGradient id="M" x1="332.332" x2="342.504" y1="167.445" y2="167.339" gradientUnits="userSpaceOnUse"><stop stop-color="#11155F"/><stop offset=".735" stop-color="#5D60A0"/><stop offset="1" stop-color="#494E91"/></linearGradient><linearGradient id="N" x1="329.781" x2="345.81" y1="178.828" y2="178.384" gradientUnits="userSpaceOnUse"><stop stop-color="#11155F"/><stop offset=".735" stop-color="#5D60A0"/><stop offset="1" stop-color="#494E91"/></linearGradient><linearGradient id="O" x1="323.552" x2="329.748" y1="175.389" y2="175.325" gradientUnits="userSpaceOnUse"><stop stop-color="#11155F"/><stop offset=".735" stop-color="#5D60A0"/><stop offset="1" stop-color="#494E91"/></linearGradient><linearGradient id="P" x1="321.998" x2="331.764" y1="165.845" y2="166.067" gradientUnits="userSpaceOnUse"><stop stop-color="#11155F"/><stop offset=".735" stop-color="#5D60A0"/><stop offset="1" stop-color="#494E91"/></linearGradient><linearGradient id="Q" x1="321.998" x2="331.762" y1="182.323" y2="182.052" gradientUnits="userSpaceOnUse"><stop stop-color="#11155F"/><stop offset=".735" stop-color="#5D60A0"/><stop offset="1" stop-color="#494E91"/></linearGradient><linearGradient id="R" x1="314.637" x2="353.999" y1="131.819" y2="131.361" gradientUnits="userSpaceOnUse"><stop stop-color="#11155F"/><stop offset=".735" stop-color="#5D60A0"/><stop offset="1" stop-color="#494E91"/></linearGradient><linearGradient id="S" x1="314.637" x2="353.955" y1="95.418" y2="94.018" gradientUnits="userSpaceOnUse"><stop stop-color="#11155F"/><stop offset=".735" stop-color="#5D60A0"/><stop offset="1" stop-color="#494E91"/></linearGradient><linearGradient id="T" x1="314.637" x2="353.928" y1="156.638" y2="158.37" gradientUnits="userSpaceOnUse"><stop stop-color="#11155F"/><stop offset=".735" stop-color="#5D60A0"/><stop offset="1" stop-color="#494E91"/></linearGradient><linearGradient id="U" x1="270.332" x2="280.504" y1="167.445" y2="167.339" gradientUnits="userSpaceOnUse"><stop stop-color="#11155F"/><stop offset=".735" stop-color="#5D60A0"/><stop offset="1" stop-color="#494E91"/></linearGradient><linearGradient id="V" x1="267.781" x2="283.81" y1="178.828" y2="178.384" gradientUnits="userSpaceOnUse"><stop stop-color="#11155F"/><stop offset=".735" stop-color="#5D60A0"/><stop offset="1" stop-color="#494E91"/></linearGradient><linearGradient id="W" x1="261.552" x2="267.748" y1="175.389" y2="175.325" gradientUnits="userSpaceOnUse"><stop stop-color="#11155F"/><stop offset=".735" stop-color="#5D60A0"/><stop offset="1" stop-color="#494E91"/></linearGradient><linearGradient id="X" x1="259.998" x2="269.764" y1="165.845" y2="166.067" gradientUnits="userSpaceOnUse"><stop stop-color="#11155F"/><stop offset=".735" stop-color="#5D60A0"/><stop offset="1" stop-color="#494E91"/></linearGradient><linearGradient id="Y" x1="259.998" x2="269.762" y1="182.323" y2="182.052" gradientUnits="userSpaceOnUse"><stop stop-color="#11155F"/><stop offset=".735" stop-color="#5D60A0"/><stop offset="1" stop-color="#494E91"/></linearGradient><linearGradient id="Z" x1="252.637" x2="291.999" y1="131.819" y2="131.361" gradientUnits="userSpaceOnUse"><stop stop-color="#11155F"/><stop offset=".735" stop-color="#5D60A0"/><stop offset="1" stop-color="#494E91"/></linearGradient><linearGradient id="aa" x1="252.637" x2="291.955" y1="95.418" y2="94.018" gradientUnits="userSpaceOnUse"><stop stop-color="#11155F"/><stop offset=".735" stop-color="#5D60A0"/><stop offset="1" stop-color="#494E91"/></linearGradient><linearGradient id="ab" x1="252.637" x2="291.928" y1="156.638" y2="158.37" gradientUnits="userSpaceOnUse"><stop stop-color="#11155F"/><stop offset=".735" stop-color="#5D60A0"/><stop offset="1" stop-color="#494E91"/></linearGradient><linearGradient id="ac" x1="209.332" x2="219.504" y1="167.445" y2="167.339" gradientUnits="userSpaceOnUse"><stop stop-color="#11155F"/><stop offset=".735" stop-color="#5D60A0"/><stop offset="1" stop-color="#494E91"/></linearGradient><linearGradient id="ad" x1="206.781" x2="222.81" y1="178.828" y2="178.384" gradientUnits="userSpaceOnUse"><stop stop-color="#11155F"/><stop offset=".735" stop-color="#5D60A0"/><stop offset="1" stop-color="#494E91"/></linearGradient><linearGradient id="ae" x1="200.552" x2="206.748" y1="175.389" y2="175.325" gradientUnits="userSpaceOnUse"><stop stop-color="#11155F"/><stop offset=".735" stop-color="#5D60A0"/><stop offset="1" stop-color="#494E91"/></linearGradient><linearGradient id="af" x1="198.998" x2="208.764" y1="165.845" y2="166.067" gradientUnits="userSpaceOnUse"><stop stop-color="#11155F"/><stop offset=".735" stop-color="#5D60A0"/><stop offset="1" stop-color="#494E91"/></linearGradient><linearGradient id="ag" x1="198.998" x2="208.762" y1="182.323" y2="182.052" gradientUnits="userSpaceOnUse"><stop stop-color="#11155F"/><stop offset=".735" stop-color="#5D60A0"/><stop offset="1" stop-color="#494E91"/></linearGradient><linearGradient id="ah" x1="191.637" x2="230.999" y1="131.819" y2="131.361" gradientUnits="userSpaceOnUse"><stop stop-color="#11155F"/><stop offset=".735" stop-color="#5D60A0"/><stop offset="1" stop-color="#494E91"/></linearGradient><linearGradient id="ai" x1="191.637" x2="230.955" y1="95.418" y2="94.018" gradientUnits="userSpaceOnUse"><stop stop-color="#11155F"/><stop offset=".735" stop-color="#5D60A0"/><stop offset="1" stop-color="#494E91"/></linearGradient><linearGradient id="aj" x1="191.637" x2="230.928" y1="156.638" y2="158.37" gradientUnits="userSpaceOnUse"><stop stop-color="#11155F"/><stop offset=".735" stop-color="#5D60A0"/><stop offset="1" stop-color="#494E91"/></linearGradient><linearGradient id="al" x1="193.299" x2="204.87" y1="310.678" y2="310.559" gradientUnits="userSpaceOnUse"><stop stop-color="#11155F"/><stop offset=".735" stop-color="#5D60A0"/><stop offset="1" stop-color="#494E91"/></linearGradient><linearGradient id="am" x1="190.397" x2="208.635" y1="292.772" y2="293.185" gradientUnits="userSpaceOnUse"><stop stop-color="#11155F"/><stop offset=".735" stop-color="#5D60A0"/><stop offset="1" stop-color="#494E91"/></linearGradient><linearGradient id="ao" x1="413.283" x2="413.283" y1="289.486" y2="297.341" gradientUnits="userSpaceOnUse"><stop stop-color="#000110"/><stop offset="1" stop-color="#171B61"/></linearGradient><linearGradient id="ap" x1="448.981" x2="429.77" y1="295.894" y2="273.286" gradientUnits="userSpaceOnUse"><stop/><stop offset="1" stop-color="#5B5FA5"/></linearGradient><linearGradient id="aq" x1="193.819" x2="203.55" y1="392.615" y2="392.583" gradientUnits="userSpaceOnUse"><stop stop-color="#11155F"/><stop offset=".735" stop-color="#5D60A0"/><stop offset="1" stop-color="#494E91"/></linearGradient><radialGradient id="k" cx="0" cy="0" r="1" gradientTransform="matrix(-26.41786 21.632 -22.30508 -27.23984 559.155 220.896)" gradientUnits="userSpaceOnUse"><stop offset=".001" stop-color="#fff"/><stop offset=".178" stop-color="#5D61A0"/><stop offset="1" stop-color="#0B0F48"/></radialGradient><radialGradient id="an" cx="0" cy="0" r="1" gradientTransform="matrix(-29.30313 34.36904 -35.6938 -30.43263 211.41 251.096)" gradientUnits="userSpaceOnUse"><stop offset=".001" stop-color="#fff"/><stop offset=".178" stop-color="#5D61A0"/><stop offset="1" stop-color="#0B0F48"/></radialGradient></defs></svg>